<mxfile host="Electron" modified="2024-06-28T18:25:46.566Z" agent="Mozilla/5.0 (Windows NT 10.0; Win64; x64) AppleWebKit/537.36 (KHTML, like Gecko) draw.io/24.6.4 Chrome/124.0.6367.207 Electron/30.0.6 Safari/537.36" etag="OVv4B_nB2LrAzGOz1zAz" version="24.6.4" type="device">
  <diagram name="第 1 页" id="CsnIRgVRf7tcyIyYQxl4">
    <mxGraphModel dx="2000" dy="1800" grid="1" gridSize="10" guides="1" tooltips="1" connect="1" arrows="1" fold="1" page="1" pageScale="1" pageWidth="827" pageHeight="1169" math="0" shadow="0">
      <root>
        <mxCell id="0" />
        <mxCell id="1" parent="0" />
        <mxCell id="fsyOgoSXNw6ddd6FHghq-31" style="edgeStyle=orthogonalEdgeStyle;rounded=0;orthogonalLoop=1;jettySize=auto;html=1;entryX=0;entryY=0.25;entryDx=0;entryDy=0;" edge="1" parent="1" source="fsyOgoSXNw6ddd6FHghq-6" target="fsyOgoSXNw6ddd6FHghq-21">
          <mxGeometry relative="1" as="geometry">
            <Array as="points">
              <mxPoint x="390" y="190" />
              <mxPoint x="390" y="190" />
            </Array>
          </mxGeometry>
        </mxCell>
        <mxCell id="fsyOgoSXNw6ddd6FHghq-6" value="图形化客户端 VocabbieApp" style="swimlane;whiteSpace=wrap;html=1;fillColor=#0050ef;strokeColor=#001DBC;fontColor=#ffffff;" vertex="1" parent="1">
          <mxGeometry x="80" y="40" width="320" height="200" as="geometry" />
        </mxCell>
        <mxCell id="fsyOgoSXNw6ddd6FHghq-8" value="Kotlin Multiplatform" style="rounded=0;whiteSpace=wrap;html=1;fillColor=#dae8fc;strokeColor=#6c8ebf;" vertex="1" parent="fsyOgoSXNw6ddd6FHghq-6">
          <mxGeometry x="20" y="160" width="280" height="20" as="geometry" />
        </mxCell>
        <mxCell id="fsyOgoSXNw6ddd6FHghq-9" value="JVM" style="rounded=0;whiteSpace=wrap;html=1;fillColor=#dae8fc;strokeColor=#6c8ebf;" vertex="1" parent="fsyOgoSXNw6ddd6FHghq-6">
          <mxGeometry x="20" y="140" width="180" height="20" as="geometry" />
        </mxCell>
        <mxCell id="fsyOgoSXNw6ddd6FHghq-10" value="WebAssembly" style="rounded=0;whiteSpace=wrap;html=1;fillColor=#dae8fc;strokeColor=#6c8ebf;" vertex="1" parent="fsyOgoSXNw6ddd6FHghq-6">
          <mxGeometry x="210" y="140" width="90" height="20" as="geometry" />
        </mxCell>
        <mxCell id="fsyOgoSXNw6ddd6FHghq-11" value="桌面应用程序" style="rounded=0;whiteSpace=wrap;html=1;fillColor=#dae8fc;strokeColor=#6c8ebf;" vertex="1" parent="fsyOgoSXNw6ddd6FHghq-6">
          <mxGeometry x="20" y="80" width="90" height="20" as="geometry" />
        </mxCell>
        <mxCell id="fsyOgoSXNw6ddd6FHghq-12" value="安卓应用程序" style="rounded=0;whiteSpace=wrap;html=1;fillColor=#dae8fc;strokeColor=#6c8ebf;" vertex="1" parent="fsyOgoSXNw6ddd6FHghq-6">
          <mxGeometry x="120" y="80" width="80" height="20" as="geometry" />
        </mxCell>
        <mxCell id="fsyOgoSXNw6ddd6FHghq-13" value="Web App" style="rounded=0;whiteSpace=wrap;html=1;fillColor=#dae8fc;strokeColor=#6c8ebf;" vertex="1" parent="fsyOgoSXNw6ddd6FHghq-6">
          <mxGeometry x="210" y="80" width="90" height="20" as="geometry" />
        </mxCell>
        <mxCell id="fsyOgoSXNw6ddd6FHghq-14" value="Jetbrains/Jetpack Compose UI" style="rounded=0;whiteSpace=wrap;html=1;fillColor=#dae8fc;strokeColor=#6c8ebf;" vertex="1" parent="fsyOgoSXNw6ddd6FHghq-6">
          <mxGeometry x="20" y="60" width="280" height="20" as="geometry" />
        </mxCell>
        <mxCell id="fsyOgoSXNw6ddd6FHghq-15" value="Java 11+&lt;div&gt;HTTP 客户端&lt;/div&gt;" style="rounded=0;whiteSpace=wrap;html=1;fillColor=#dae8fc;strokeColor=#6c8ebf;" vertex="1" parent="fsyOgoSXNw6ddd6FHghq-6">
          <mxGeometry x="20" y="100" width="110" height="40" as="geometry" />
        </mxCell>
        <mxCell id="fsyOgoSXNw6ddd6FHghq-16" value="OkHttp&lt;div&gt;客户端&lt;/div&gt;" style="rounded=0;whiteSpace=wrap;html=1;fillColor=#dae8fc;strokeColor=#6c8ebf;" vertex="1" parent="fsyOgoSXNw6ddd6FHghq-6">
          <mxGeometry x="130" y="100" width="70" height="40" as="geometry" />
        </mxCell>
        <mxCell id="fsyOgoSXNw6ddd6FHghq-17" value="Ktor WebSocket&lt;div&gt;客户端&lt;/div&gt;" style="rounded=0;whiteSpace=wrap;html=1;fillColor=#dae8fc;strokeColor=#6c8ebf;" vertex="1" parent="fsyOgoSXNw6ddd6FHghq-6">
          <mxGeometry x="210" y="100" width="90" height="40" as="geometry" />
        </mxCell>
        <mxCell id="fsyOgoSXNw6ddd6FHghq-18" value="自定义状态、生命周期管理和业务逻辑、动画等" style="rounded=0;whiteSpace=wrap;html=1;fillColor=#dae8fc;strokeColor=#6c8ebf;" vertex="1" parent="fsyOgoSXNw6ddd6FHghq-6">
          <mxGeometry x="20" y="40" width="280" height="20" as="geometry" />
        </mxCell>
        <mxCell id="fsyOgoSXNw6ddd6FHghq-32" style="edgeStyle=orthogonalEdgeStyle;rounded=0;orthogonalLoop=1;jettySize=auto;html=1;" edge="1" parent="1" source="fsyOgoSXNw6ddd6FHghq-7" target="fsyOgoSXNw6ddd6FHghq-21">
          <mxGeometry relative="1" as="geometry">
            <Array as="points">
              <mxPoint x="410" y="310" />
              <mxPoint x="410" y="310" />
            </Array>
          </mxGeometry>
        </mxCell>
        <mxCell id="fsyOgoSXNw6ddd6FHghq-7" value="基本客户端 vcbe-client" style="swimlane;whiteSpace=wrap;html=1;fillColor=#0050ef;strokeColor=#001DBC;fontColor=#ffffff;" vertex="1" parent="1">
          <mxGeometry x="80" y="280" width="320" height="120" as="geometry" />
        </mxCell>
        <mxCell id="fsyOgoSXNw6ddd6FHghq-19" value="Reqwest HTTP 客户端" style="rounded=0;whiteSpace=wrap;html=1;fillColor=#dae8fc;strokeColor=#6c8ebf;" vertex="1" parent="fsyOgoSXNw6ddd6FHghq-7">
          <mxGeometry x="12.5" y="60" width="295" height="20" as="geometry" />
        </mxCell>
        <mxCell id="fsyOgoSXNw6ddd6FHghq-25" value="Rust - LLVM 原生编译平台" style="rounded=0;whiteSpace=wrap;html=1;fillColor=#dae8fc;strokeColor=#6c8ebf;" vertex="1" parent="fsyOgoSXNw6ddd6FHghq-7">
          <mxGeometry x="12.5" y="80" width="295" height="20" as="geometry" />
        </mxCell>
        <mxCell id="fsyOgoSXNw6ddd6FHghq-27" value="脚本执行应用程序" style="rounded=0;whiteSpace=wrap;html=1;fillColor=#dae8fc;strokeColor=#6c8ebf;" vertex="1" parent="fsyOgoSXNw6ddd6FHghq-7">
          <mxGeometry x="12.5" y="40" width="127.5" height="20" as="geometry" />
        </mxCell>
        <mxCell id="fsyOgoSXNw6ddd6FHghq-28" value="命令行用户交互应用程序" style="rounded=0;whiteSpace=wrap;html=1;fillColor=#dae8fc;strokeColor=#6c8ebf;" vertex="1" parent="fsyOgoSXNw6ddd6FHghq-7">
          <mxGeometry x="150" y="40" width="157.5" height="20" as="geometry" />
        </mxCell>
        <mxCell id="fsyOgoSXNw6ddd6FHghq-74" value="" style="edgeStyle=orthogonalEdgeStyle;rounded=0;orthogonalLoop=1;jettySize=auto;html=1;" edge="1" parent="1" source="fsyOgoSXNw6ddd6FHghq-20" target="fsyOgoSXNw6ddd6FHghq-64">
          <mxGeometry relative="1" as="geometry">
            <Array as="points">
              <mxPoint x="910" y="500" />
            </Array>
          </mxGeometry>
        </mxCell>
        <mxCell id="fsyOgoSXNw6ddd6FHghq-20" value="自动客户端 vcbe-eval" style="swimlane;whiteSpace=wrap;html=1;fillColor=#a0522d;fontColor=#ffffff;strokeColor=#6D1F00;" vertex="1" parent="1">
          <mxGeometry x="520" y="420" width="200" height="160" as="geometry" />
        </mxCell>
        <mxCell id="fsyOgoSXNw6ddd6FHghq-56" value="Rust - LLVM 原生编译平台" style="rounded=0;whiteSpace=wrap;html=1;fillColor=#ffe6cc;strokeColor=#d79b00;" vertex="1" parent="fsyOgoSXNw6ddd6FHghq-20">
          <mxGeometry x="15" y="120" width="165" height="20" as="geometry" />
        </mxCell>
        <mxCell id="fsyOgoSXNw6ddd6FHghq-58" value="统计学、经验主义&lt;span style=&quot;background-color: initial;&quot;&gt;算法&lt;/span&gt;" style="rounded=0;whiteSpace=wrap;html=1;fillColor=#e1d5e7;strokeColor=#9673a6;" vertex="1" parent="fsyOgoSXNw6ddd6FHghq-20">
          <mxGeometry x="15" y="80" width="165" height="20" as="geometry" />
        </mxCell>
        <mxCell id="fsyOgoSXNw6ddd6FHghq-59" value="crossbeam/rayon 并行计算" style="rounded=0;whiteSpace=wrap;html=1;fillColor=#ffe6cc;strokeColor=#d79b00;" vertex="1" parent="fsyOgoSXNw6ddd6FHghq-20">
          <mxGeometry x="15" y="100" width="165" height="20" as="geometry" />
        </mxCell>
        <mxCell id="fsyOgoSXNw6ddd6FHghq-60" value="用于测试的大规模&lt;div&gt;批处理计算逻辑&lt;/div&gt;" style="rounded=0;whiteSpace=wrap;html=1;fillColor=#ffe6cc;strokeColor=#d79b00;" vertex="1" parent="fsyOgoSXNw6ddd6FHghq-20">
          <mxGeometry x="15" y="40" width="165" height="40" as="geometry" />
        </mxCell>
        <mxCell id="fsyOgoSXNw6ddd6FHghq-21" value="服务端 vcbe-server" style="swimlane;whiteSpace=wrap;html=1;fillColor=#d80073;strokeColor=#A50040;fontColor=#ffffff;" vertex="1" parent="1">
          <mxGeometry x="440" y="140" width="300" height="200" as="geometry" />
        </mxCell>
        <mxCell id="fsyOgoSXNw6ddd6FHghq-33" value="Rust - LLVM 原生编译平台" style="rounded=0;whiteSpace=wrap;html=1;fillColor=#f8cecc;strokeColor=#b85450;" vertex="1" parent="fsyOgoSXNw6ddd6FHghq-21">
          <mxGeometry x="20" y="160" width="260" height="20" as="geometry" />
        </mxCell>
        <mxCell id="fsyOgoSXNw6ddd6FHghq-34" value="Tokio&lt;div&gt;异步运行时&lt;/div&gt;" style="rounded=0;whiteSpace=wrap;html=1;fillColor=#f8cecc;strokeColor=#b85450;" vertex="1" parent="fsyOgoSXNw6ddd6FHghq-21">
          <mxGeometry x="20" y="120" width="130" height="40" as="geometry" />
        </mxCell>
        <mxCell id="fsyOgoSXNw6ddd6FHghq-35" value="Rocket&lt;div&gt;服务器框架&lt;/div&gt;" style="rounded=0;whiteSpace=wrap;html=1;fillColor=#f8cecc;strokeColor=#b85450;" vertex="1" parent="fsyOgoSXNw6ddd6FHghq-21">
          <mxGeometry x="150" y="120" width="130" height="40" as="geometry" />
        </mxCell>
        <mxCell id="fsyOgoSXNw6ddd6FHghq-39" value="Libtorch推理库" style="rounded=0;whiteSpace=wrap;html=1;fillColor=#d5e8d4;strokeColor=#82b366;" vertex="1" parent="fsyOgoSXNw6ddd6FHghq-21">
          <mxGeometry x="160" y="100" width="120" height="20" as="geometry" />
        </mxCell>
        <mxCell id="fsyOgoSXNw6ddd6FHghq-41" value="机器学习算法" style="rounded=0;whiteSpace=wrap;html=1;fillColor=#d5e8d4;strokeColor=#82b366;" vertex="1" parent="fsyOgoSXNw6ddd6FHghq-21">
          <mxGeometry x="160" y="80" width="120" height="20" as="geometry" />
        </mxCell>
        <mxCell id="fsyOgoSXNw6ddd6FHghq-42" value="按场次定义的统一 HTTP API" style="rounded=0;whiteSpace=wrap;html=1;fillColor=#f8cecc;strokeColor=#b85450;" vertex="1" parent="fsyOgoSXNw6ddd6FHghq-21">
          <mxGeometry x="20" y="60" width="260" height="20" as="geometry" />
        </mxCell>
        <mxCell id="fsyOgoSXNw6ddd6FHghq-43" value="启动、更新、终止和获取状态操作" style="rounded=0;whiteSpace=wrap;html=1;fillColor=#f8cecc;strokeColor=#b85450;" vertex="1" parent="fsyOgoSXNw6ddd6FHghq-21">
          <mxGeometry x="20" y="40" width="260" height="20" as="geometry" />
        </mxCell>
        <mxCell id="fsyOgoSXNw6ddd6FHghq-55" value="统计学、经验主义&lt;div&gt;算法&lt;/div&gt;" style="rounded=0;whiteSpace=wrap;html=1;fillColor=#e1d5e7;strokeColor=#9673a6;" vertex="1" parent="fsyOgoSXNw6ddd6FHghq-21">
          <mxGeometry x="20" y="80" width="130" height="40" as="geometry" />
        </mxCell>
        <mxCell id="fsyOgoSXNw6ddd6FHghq-53" value="" style="edgeStyle=orthogonalEdgeStyle;rounded=0;orthogonalLoop=1;jettySize=auto;html=1;exitX=1;exitY=0.25;exitDx=0;exitDy=0;" edge="1" parent="1" source="fsyOgoSXNw6ddd6FHghq-22" target="fsyOgoSXNw6ddd6FHghq-21">
          <mxGeometry relative="1" as="geometry">
            <mxPoint x="515" y="380" as="sourcePoint" />
            <mxPoint x="530" y="340" as="targetPoint" />
            <Array as="points">
              <mxPoint x="400" y="490" />
              <mxPoint x="480" y="490" />
            </Array>
          </mxGeometry>
        </mxCell>
        <mxCell id="fsyOgoSXNw6ddd6FHghq-54" style="edgeStyle=orthogonalEdgeStyle;rounded=0;orthogonalLoop=1;jettySize=auto;html=1;" edge="1" parent="1" source="fsyOgoSXNw6ddd6FHghq-22" target="fsyOgoSXNw6ddd6FHghq-20">
          <mxGeometry relative="1" as="geometry">
            <Array as="points">
              <mxPoint x="460" y="530" />
              <mxPoint x="460" y="530" />
            </Array>
          </mxGeometry>
        </mxCell>
        <mxCell id="fsyOgoSXNw6ddd6FHghq-22" value="核心逻辑 vcbe-core" style="swimlane;whiteSpace=wrap;html=1;fillColor=#76608a;fontColor=#ffffff;strokeColor=#432D57;" vertex="1" parent="1">
          <mxGeometry x="80" y="440" width="320" height="140" as="geometry" />
        </mxCell>
        <mxCell id="fsyOgoSXNw6ddd6FHghq-36" value="ULS&amp;nbsp;&lt;span style=&quot;background-color: initial;&quot;&gt;算法&lt;/span&gt;" style="rounded=0;whiteSpace=wrap;html=1;fillColor=#e1d5e7;strokeColor=#9673a6;" vertex="1" parent="fsyOgoSXNw6ddd6FHghq-22">
          <mxGeometry x="20" y="40" width="140" height="20" as="geometry" />
        </mxCell>
        <mxCell id="fsyOgoSXNw6ddd6FHghq-40" value="RFWLS&amp;nbsp;&lt;span style=&quot;background-color: initial;&quot;&gt;算法&lt;/span&gt;" style="rounded=0;whiteSpace=wrap;html=1;fillColor=#e1d5e7;strokeColor=#9673a6;" vertex="1" parent="fsyOgoSXNw6ddd6FHghq-22">
          <mxGeometry x="170" y="40" width="140" height="20" as="geometry" />
        </mxCell>
        <mxCell id="fsyOgoSXNw6ddd6FHghq-50" value="共享数据类型" style="rounded=0;whiteSpace=wrap;html=1;fillColor=#e1d5e7;strokeColor=#9673a6;" vertex="1" parent="fsyOgoSXNw6ddd6FHghq-22">
          <mxGeometry x="20" y="70" width="140" height="20" as="geometry" />
        </mxCell>
        <mxCell id="fsyOgoSXNw6ddd6FHghq-51" value="序列化逻辑" style="rounded=0;whiteSpace=wrap;html=1;fillColor=#e1d5e7;strokeColor=#9673a6;" vertex="1" parent="fsyOgoSXNw6ddd6FHghq-22">
          <mxGeometry x="170" y="70" width="140" height="20" as="geometry" />
        </mxCell>
        <mxCell id="fsyOgoSXNw6ddd6FHghq-52" value="通信规范" style="rounded=0;whiteSpace=wrap;html=1;fillColor=#e1d5e7;strokeColor=#9673a6;" vertex="1" parent="fsyOgoSXNw6ddd6FHghq-22">
          <mxGeometry x="20" y="100" width="140" height="20" as="geometry" />
        </mxCell>
        <mxCell id="fsyOgoSXNw6ddd6FHghq-48" style="edgeStyle=orthogonalEdgeStyle;rounded=0;orthogonalLoop=1;jettySize=auto;html=1;entryX=1;entryY=0.5;entryDx=0;entryDy=0;" edge="1" parent="1" source="fsyOgoSXNw6ddd6FHghq-23" target="fsyOgoSXNw6ddd6FHghq-38">
          <mxGeometry relative="1" as="geometry">
            <Array as="points">
              <mxPoint x="780" y="80" />
            </Array>
          </mxGeometry>
        </mxCell>
        <mxCell id="fsyOgoSXNw6ddd6FHghq-23" value="&amp;nbsp;数据产生 vcbe-gen" style="swimlane;whiteSpace=wrap;html=1;fillColor=#008a00;fontColor=#ffffff;strokeColor=#005700;" vertex="1" parent="1">
          <mxGeometry x="780" y="40" width="340" height="100" as="geometry" />
        </mxCell>
        <mxCell id="fsyOgoSXNw6ddd6FHghq-81" value="数据迁移到内部格式" style="shape=step;perimeter=stepPerimeter;whiteSpace=wrap;html=1;fixedSize=1;size=10.000000000000227;fillColor=#d5e8d4;strokeColor=#82b366;" vertex="1" parent="fsyOgoSXNw6ddd6FHghq-23">
          <mxGeometry x="20" y="40" width="140" height="20" as="geometry" />
        </mxCell>
        <mxCell id="fsyOgoSXNw6ddd6FHghq-82" value="处理零频率词语" style="shape=step;perimeter=stepPerimeter;whiteSpace=wrap;html=1;fixedSize=1;size=10.000000000000227;fillColor=#d5e8d4;strokeColor=#82b366;" vertex="1" parent="fsyOgoSXNw6ddd6FHghq-23">
          <mxGeometry x="150" y="40" width="120" height="20" as="geometry" />
        </mxCell>
        <mxCell id="fsyOgoSXNw6ddd6FHghq-83" value="处理零频率词语" style="shape=step;perimeter=stepPerimeter;whiteSpace=wrap;html=1;fixedSize=1;size=10.000000000000227;fillColor=#d5e8d4;strokeColor=#82b366;" vertex="1" parent="fsyOgoSXNw6ddd6FHghq-23">
          <mxGeometry x="20" y="60" width="120" height="20" as="geometry" />
        </mxCell>
        <mxCell id="fsyOgoSXNw6ddd6FHghq-84" value="产生项" style="shape=step;perimeter=stepPerimeter;whiteSpace=wrap;html=1;fixedSize=1;size=10.000000000000227;fillColor=#d5e8d4;strokeColor=#82b366;" vertex="1" parent="fsyOgoSXNw6ddd6FHghq-23">
          <mxGeometry x="130" y="60" width="70" height="20" as="geometry" />
        </mxCell>
        <mxCell id="fsyOgoSXNw6ddd6FHghq-85" value="产生列" style="shape=step;perimeter=stepPerimeter;whiteSpace=wrap;html=1;fixedSize=1;size=10.000000000000227;fillColor=#d5e8d4;strokeColor=#82b366;" vertex="1" parent="fsyOgoSXNw6ddd6FHghq-23">
          <mxGeometry x="190" y="60" width="70" height="20" as="geometry" />
        </mxCell>
        <mxCell id="fsyOgoSXNw6ddd6FHghq-86" value="写入DB" style="shape=step;perimeter=stepPerimeter;whiteSpace=wrap;html=1;fixedSize=1;size=10.000000000000227;fillColor=#d5e8d4;strokeColor=#82b366;" vertex="1" parent="fsyOgoSXNw6ddd6FHghq-23">
          <mxGeometry x="250" y="60" width="70" height="20" as="geometry" />
        </mxCell>
        <mxCell id="fsyOgoSXNw6ddd6FHghq-49" style="edgeStyle=orthogonalEdgeStyle;rounded=0;orthogonalLoop=1;jettySize=auto;html=1;" edge="1" parent="1" source="fsyOgoSXNw6ddd6FHghq-24" target="fsyOgoSXNw6ddd6FHghq-21">
          <mxGeometry relative="1" as="geometry">
            <Array as="points">
              <mxPoint x="770" y="240" />
              <mxPoint x="770" y="240" />
            </Array>
          </mxGeometry>
        </mxCell>
        <mxCell id="fsyOgoSXNw6ddd6FHghq-24" value="深度学习模型训练" style="swimlane;whiteSpace=wrap;html=1;fillColor=#008a00;fontColor=#ffffff;strokeColor=#005700;" vertex="1" parent="1">
          <mxGeometry x="780" y="180" width="160" height="160" as="geometry" />
        </mxCell>
        <mxCell id="fsyOgoSXNw6ddd6FHghq-61" value="Python 3.10" style="rounded=0;whiteSpace=wrap;html=1;fillColor=#d5e8d4;strokeColor=#82b366;" vertex="1" parent="fsyOgoSXNw6ddd6FHghq-24">
          <mxGeometry x="20" y="120" width="120" height="20" as="geometry" />
        </mxCell>
        <mxCell id="fsyOgoSXNw6ddd6FHghq-62" value="PyTorch 2.3" style="rounded=0;whiteSpace=wrap;html=1;fillColor=#d5e8d4;strokeColor=#82b366;" vertex="1" parent="fsyOgoSXNw6ddd6FHghq-24">
          <mxGeometry x="20" y="100" width="120" height="20" as="geometry" />
        </mxCell>
        <mxCell id="fsyOgoSXNw6ddd6FHghq-70" value="多层顺序式深度&lt;div&gt;神经网络模型&lt;/div&gt;" style="rounded=0;whiteSpace=wrap;html=1;fillColor=#d5e8d4;strokeColor=#82b366;" vertex="1" parent="fsyOgoSXNw6ddd6FHghq-24">
          <mxGeometry x="20" y="60" width="120" height="40" as="geometry" />
        </mxCell>
        <mxCell id="fsyOgoSXNw6ddd6FHghq-71" value="按单词独热编码" style="rounded=0;whiteSpace=wrap;html=1;fillColor=#d5e8d4;strokeColor=#82b366;" vertex="1" parent="fsyOgoSXNw6ddd6FHghq-24">
          <mxGeometry x="20" y="40" width="120" height="20" as="geometry" />
        </mxCell>
        <mxCell id="fsyOgoSXNw6ddd6FHghq-44" value="" style="edgeStyle=orthogonalEdgeStyle;rounded=0;orthogonalLoop=1;jettySize=auto;html=1;" edge="1" parent="1" source="fsyOgoSXNw6ddd6FHghq-38" target="fsyOgoSXNw6ddd6FHghq-21">
          <mxGeometry relative="1" as="geometry" />
        </mxCell>
        <mxCell id="fsyOgoSXNw6ddd6FHghq-38" value="RDBMS：MariaDB" style="rounded=0;whiteSpace=wrap;html=1;fillColor=#e3c800;strokeColor=#B09500;fontColor=#000000;fontSize=16;" vertex="1" parent="1">
          <mxGeometry x="510" y="60" width="160" height="40" as="geometry" />
        </mxCell>
        <mxCell id="fsyOgoSXNw6ddd6FHghq-64" value="试验后数据分析" style="swimlane;whiteSpace=wrap;html=1;fillColor=#008a00;fontColor=#ffffff;strokeColor=#005700;" vertex="1" parent="1">
          <mxGeometry x="780" y="340" width="260" height="120" as="geometry" />
        </mxCell>
        <mxCell id="fsyOgoSXNw6ddd6FHghq-65" value="Python 3.10" style="rounded=0;whiteSpace=wrap;html=1;fillColor=#d5e8d4;strokeColor=#82b366;" vertex="1" parent="fsyOgoSXNw6ddd6FHghq-64">
          <mxGeometry x="20" y="80" width="220" height="20" as="geometry" />
        </mxCell>
        <mxCell id="fsyOgoSXNw6ddd6FHghq-66" value="NumPy+SciPy 与一系列绘图相关库" style="rounded=0;whiteSpace=wrap;html=1;fillColor=#d5e8d4;strokeColor=#82b366;" vertex="1" parent="fsyOgoSXNw6ddd6FHghq-64">
          <mxGeometry x="20" y="60" width="220" height="20" as="geometry" />
        </mxCell>
        <mxCell id="fsyOgoSXNw6ddd6FHghq-73" value="散点图绘制&lt;span style=&quot;background-color: initial;&quot;&gt;用于展示数据&lt;/span&gt;&lt;span style=&quot;background-color: initial;&quot;&gt;实际规律&lt;/span&gt;" style="rounded=0;whiteSpace=wrap;html=1;fillColor=#d5e8d4;strokeColor=#82b366;" vertex="1" parent="fsyOgoSXNw6ddd6FHghq-64">
          <mxGeometry x="20" y="40" width="220" height="20" as="geometry" />
        </mxCell>
        <mxCell id="fsyOgoSXNw6ddd6FHghq-75" value="网站资料抓取" style="swimlane;whiteSpace=wrap;html=1;fillColor=#008a00;fontColor=#ffffff;strokeColor=#005700;" vertex="1" parent="1">
          <mxGeometry x="940" y="180" width="180" height="160" as="geometry" />
        </mxCell>
        <mxCell id="fsyOgoSXNw6ddd6FHghq-76" value="Python 3.10" style="rounded=0;whiteSpace=wrap;html=1;fillColor=#d5e8d4;strokeColor=#82b366;" vertex="1" parent="fsyOgoSXNw6ddd6FHghq-75">
          <mxGeometry x="20" y="120" width="140" height="20" as="geometry" />
        </mxCell>
        <mxCell id="fsyOgoSXNw6ddd6FHghq-77" value="Selenium 测试工具" style="rounded=0;whiteSpace=wrap;html=1;fillColor=#d5e8d4;strokeColor=#82b366;" vertex="1" parent="fsyOgoSXNw6ddd6FHghq-75">
          <mxGeometry x="20" y="100" width="140" height="20" as="geometry" />
        </mxCell>
        <mxCell id="fsyOgoSXNw6ddd6FHghq-78" value="抓取 TYV 网站单词&lt;div&gt;选择与分数呈现的结果&lt;/div&gt;&lt;div&gt;准备分析其趋势&lt;/div&gt;" style="rounded=0;whiteSpace=wrap;html=1;fillColor=#d5e8d4;strokeColor=#82b366;" vertex="1" parent="fsyOgoSXNw6ddd6FHghq-75">
          <mxGeometry x="20" y="40" width="140" height="60" as="geometry" />
        </mxCell>
        <mxCell id="fsyOgoSXNw6ddd6FHghq-79" value="vocabbie-py" style="text;html=1;align=center;verticalAlign=middle;whiteSpace=wrap;rounded=0;fillColor=#008a00;fontColor=#ffffff;strokeColor=#005700;" vertex="1" parent="1">
          <mxGeometry x="960" y="460" width="80" height="20" as="geometry" />
        </mxCell>
        <mxCell id="fsyOgoSXNw6ddd6FHghq-88" value="" style="rounded=0;whiteSpace=wrap;html=1;" vertex="1" parent="1">
          <mxGeometry x="910" y="540" width="210" height="40" as="geometry" />
        </mxCell>
        <mxCell id="fsyOgoSXNw6ddd6FHghq-87" value="The Vocabbie Project" style="text;html=1;align=left;verticalAlign=middle;whiteSpace=wrap;rounded=0;fontSize=20;fontFamily=Times New Roman;" vertex="1" parent="1">
          <mxGeometry x="920" y="540" width="180" height="20" as="geometry" />
        </mxCell>
        <mxCell id="fsyOgoSXNw6ddd6FHghq-91" value="Technical Introduction &amp;amp; Roadmap" style="text;html=1;align=left;verticalAlign=middle;whiteSpace=wrap;rounded=0;fontFamily=Times New Roman;fontSize=12;fontStyle=1" vertex="1" parent="1">
          <mxGeometry x="920" y="560" width="190" height="20" as="geometry" />
        </mxCell>
      </root>
    </mxGraphModel>
  </diagram>
</mxfile>
